# ProBuilder 4.4.0
# https://unity3d.com/unity/features/worldbuilding/probuilder
# 02/02/2021 15:42:26

mtllib ./LevelGeom.mtl
o LevelGeom

g LevelGeom
v 0 0 20
v -1 0 20
v 0 1 20
v -1 1 20
v -18 0 1
v -18 0 0
v -18 1 1
v -18 1 0
v -1 0 0
v 0 0 0
v -1 1 0
v 0 1 0
v 0 0 1
v 0 1 1
v 0 15 1
v -1 15 1
v 0 15 0
v -1 15 0
v -1 0 1
v 0 0 7
v -1 0 7
v 0 1 7
v -18 0 7
v -18 1 7
v -1 15 7
v 0 15 7
v 0 0 8
v -1 0 8
v 0 1 8
v -18 0 8
v -18 1 8
v -1 15 8
v 0 15 8
v 0 0 14
v -1 0 14
v 0 1 14
v -18 0 14
v -18 1 14
v -1 15 14
v 0 15 14
v 0 0 19
v -1 0 19
v 0 1 19
v -18 0 19
v -18 1 19
v -1 15 19
v 0 15 19
v -18 0 20
v -18 1 20
v -1 15 20
v 0 15 20
v -5 0 1
v -5 0 0
v -5 0 7
v -5 1 0
v -5 15 0
v -5 15 1
v -1 1 1
v -1 1 7
v -5 1 1
v -5 1 7
v -5 0 8
v -1 6 7
v -1 6 8
v -5 6 7
v -5 6 8
v -5 0 14
v -1 1 8
v -1 1 14
v -5 1 8
v -5 1 14
v -5 0 19
v -1 11 14
v -1 11 19
v -5 11 14
v -5 11 19
v -5 0 20
v -5 15 19
v -5 15 20
v -5 1 20
v -6 0 1
v -6 0 0
v -6 0 7
v -6 1 0
v -6 15 0
v -6 15 1
v -6 1 1
v -6 1 7
v -6 0 8
v -6 6 7
v -6 6 8
v -6 0 14
v -6 1 8
v -6 1 14
v -6 0 19
v -5 1 19
v -6 1 19
v -6 0 20
v -6 15 19
v -6 15 20
v -6 1 20
v -11 0 1
v -11 0 0
v -11 0 7
v -11 1 0
v -11 15 0
v -11 15 1
v -11 1 1
v -11 1 7
v -11 0 8
v -11 1 8
v -11 0 14
v -11 1 14
v -11 0 19
v -11 1 19
v -11 0 20
v -11 15 19
v -11 15 20
v -11 1 20
v -12 0 1
v -12 0 0
v -12 0 7
v -12 1 0
v -12 15 0
v -12 15 1
v -11 15 7
v -12 15 7
v -12 0 8
v -11 15 8
v -12 15 8
v -12 0 14
v -11 11 8
v -11 11 14
v -12 11 8
v -12 11 14
v -12 0 19
v -12 1 14
v -12 1 19
v -12 0 20
v -12 15 19
v -12 15 20
v -12 1 20
v -17 0 1
v -17 0 0
v -17 0 7
v -17 1 0
v -17 15 0
v -17 15 1
v -12 6 1
v -12 6 7
v -17 6 1
v -17 6 7
v -17 0 8
v -12 6 8
v -17 6 8
v -17 0 14
v -17 11 8
v -17 11 14
v -17 0 19
v -17 1 14
v -17 1 19
v -17 0 20
v -17 15 19
v -17 15 20
v -17 1 20
v -18 15 0
v -18 15 1
v -17 15 7
v -18 15 7
v -17 15 8
v -18 15 8
v -17 15 14
v -18 15 14
v -18 15 19
v -18 15 20
v -1 6 1
v 0 6 0
v 0 6 1
v -5 6 0
v -1 6 0
v 0 6 7
v 0 6 8
v -1 6 14
v 0 6 14
v -5 6 14
v 0 6 19
v -5 6 19
v 0 6 20
v -1 6 20
v -5 6 20
v -6 6 19
v -6 6 20
v -11 6 19
v -11 6 20
v -12 6 19
v -12 6 20
v -17 6 19
v -17 6 20
v -18 6 19
v -18 6 14
v -18 6 20
v -17 6 14
v -18 6 8
v -18 6 7
v -18 6 1
v -18 6 0
v -11 6 1
v -11 6 7
v -17 6 0
v -5 6 1
v -12 6 0
v -11 6 0
v -11 6 14
v -12 6 14
v -6 6 0
v -6 6 1
v -11 6 8
v -11 11 1
v -11 11 7
v -17 11 0
v -12 11 0
v -12 11 7
v -12 11 1
v -18 11 8
v -18 11 7
v -17 11 20
v -18 11 20
v -18 11 14
v -17 11 19
v -18 11 19
v 0 11 14
v 0 11 19
v 0 11 20
v -12 11 19
v -12 11 20
v -11 11 19
v -11 11 20
v -6 11 19
v -6 11 20
v -5 11 20
v -1 11 20
v -5 11 0
v -1 11 0
v 0 11 0
v 0 11 1
v -1 11 8
v 0 11 8
v -1 11 7
v 0 11 7
v -1 11 1
v -5 11 1
v -6 11 0
v -6 11 1
v -11 11 0
v -17 11 1
v -18 11 0
v -18 11 1
v -17 11 7

vt 0 0
vt -1 0
vt 0 1
vt -1 1
vt 1 0
vt 1 1
vt 0 -1
vt 1 -1
vt -1 -1
vt 0 6
vt -1 6
vt -6 1
vt -6 0
vt 6 0
vt 6 1
vt 1 6
vt 0 7
vt -1 7
vt -7 1
vt -7 0
vt 7 0
vt 7 1
vt 1 7
vt 0 13
vt -1 13
vt -13 1
vt -13 0
vt 13 0
vt 13 1
vt 1 13
vt 0 18
vt -1 18
vt -18 1
vt -18 0
vt 18 0
vt 18 1
vt 1 18
vt 0 19
vt -1 19
vt -19 1
vt -19 0
vt 19 0
vt 19 1
vt 1 19
vt -5 0
vt -5 -1
vt -5 6
vt 5 0
vt 5 1
vt 5 -1
vt 5 6
vt -5 7
vt 5 7
vt -5 13
vt 5 13
vt -5 18
vt 5 18
vt -5 19
vt 5 19
vt -5 1
vt -6 -1
vt -6 6
vt 6 -1
vt 6 6
vt -6 7
vt 6 7
vt -6 13
vt 6 13
vt -6 18
vt 6 18
vt -6 19
vt 6 19
vt -11 0
vt -11 -1
vt -11 6
vt 11 0
vt 11 1
vt 11 -1
vt 11 6
vt -11 7
vt 11 7
vt -11 13
vt 11 13
vt -11 18
vt 11 18
vt -11 19
vt 11 19
vt -11 1
vt -12 0
vt -12 -1
vt -12 6
vt 12 0
vt 12 1
vt 12 -1
vt 12 6
vt -12 7
vt 12 7
vt -12 13
vt 12 13
vt -12 18
vt 12 18
vt -12 19
vt 12 19
vt -12 1
vt -17 0
vt -17 -1
vt -17 6
vt 17 0
vt 17 1
vt 17 -1
vt 17 6
vt -17 7
vt 17 7
vt -17 13
vt 17 13
vt -17 18
vt 17 18
vt -17 19
vt 17 19
vt -17 1
vt -18 -1
vt -18 6
vt 18 -1
vt 18 6
vt -18 7
vt 18 7
vt -18 13
vt 18 13
vt -18 18
vt 18 18
vt -18 19
vt 18 19
vt -7 6
vt 13 6
vt 7 6
vt -13 6
vt -19 6
vt 19 6
vt 0 11
vt -6 11
vt 17 11
vt 12 11
vt -11 11
vt -12 11
vt 6 11
vt -7 11
vt 7 11
vt -13 11
vt -17 11
vt -18 11
vt 13 11
vt 18 11
vt 19 11
vt -19 11
vt 11 11
vt 5 11
vt -5 11
vt -1 11
vt 1 11
vt 6 15
vt 0 15
vt 18 15
vt 17 15
vt -6 15
vt -1 15
vt 1 15
vt 12 15
vt -12 15
vt -17 15
vt 11 15
vt -11 15
vt 5 15
vt -5 15
vt 7 15
vt -7 15
vt 13 15
vt -13 15
vt -18 15
vt -19 15
vt 19 15

vn 0 0 1
vn -1 0 0
vn 0 0 -1
vn 1 0 0
vn 0 1 0
vn 0 -1 0

usemtl LevelGeom
f 3/3/1 4/4/1 2/2/1 1/1/1
f 7/3/2 8/4/2 6/2/2 5/1/2
f 11/6/3 12/3/3 10/1/3 9/5/3
f 12/6/4 14/3/4 13/1/4 10/5/4
f 17/7/5 18/8/5 16/5/5 15/1/5
f 13/1/6 19/2/6 9/9/6 10/7/6
f 20/10/6 21/11/6 19/2/6 13/1/6
f 22/12/4 20/13/4 13/1/4 14/3/4
f 23/14/2 24/15/2 7/3/2 5/1/2
f 25/16/5 26/10/5 15/1/5 16/5/5
f 27/17/6 28/18/6 21/11/6 20/10/6
f 29/19/4 27/20/4 20/13/4 22/12/4
f 30/21/2 31/22/2 24/15/2 23/14/2
f 32/23/5 33/17/5 26/10/5 25/16/5
f 34/24/6 35/25/6 28/18/6 27/17/6
f 36/26/4 34/27/4 27/20/4 29/19/4
f 37/28/2 38/29/2 31/22/2 30/21/2
f 39/30/5 40/24/5 33/17/5 32/23/5
f 41/31/6 42/32/6 35/25/6 34/24/6
f 43/33/4 41/34/4 34/27/4 36/26/4
f 44/35/2 45/36/2 38/29/2 37/28/2
f 46/37/5 47/31/5 40/24/5 39/30/5
f 1/38/6 2/39/6 42/32/6 41/31/6
f 3/40/4 1/41/4 41/34/4 43/33/4
f 48/42/2 49/43/2 45/36/2 44/35/2
f 50/44/5 51/38/5 47/31/5 46/37/5
f 52/45/6 53/46/6 9/9/6 19/2/6
f 54/47/6 52/45/6 19/2/6 21/11/6
f 53/48/3 55/49/3 11/6/3 9/5/3
f 56/50/5 57/48/5 16/5/5 18/8/5
f 60/48/5 61/51/5 59/16/5 58/5/5
f 62/52/6 54/47/6 21/11/6 28/18/6
f 65/51/5 66/53/5 64/23/5 63/16/5
f 67/54/6 62/52/6 28/18/6 35/25/6
f 70/53/5 71/55/5 69/30/5 68/23/5
f 72/56/6 67/54/6 35/25/6 42/32/6
f 75/55/5 76/57/5 74/37/5 73/30/5
f 77/58/6 72/56/6 42/32/6 2/39/6
f 78/57/5 79/59/5 50/44/5 46/37/5
f 80/60/1 77/45/1 2/2/1 4/4/1
f 81/13/6 82/61/6 53/46/6 52/45/6
f 83/62/6 81/13/6 52/45/6 54/47/6
f 82/14/3 84/15/3 55/49/3 53/48/3
f 85/63/5 86/14/5 57/48/5 56/50/5
f 87/14/5 88/64/5 61/51/5 60/48/5
f 89/65/6 83/62/6 54/47/6 62/52/6
f 90/64/5 91/66/5 66/53/5 65/51/5
f 92/67/6 89/65/6 62/52/6 67/54/6
f 93/66/5 94/68/5 71/55/5 70/53/5
f 95/69/6 92/67/6 67/54/6 72/56/6
f 94/68/5 97/70/5 96/57/5 71/55/5
f 98/71/6 95/69/6 72/56/6 77/58/6
f 99/70/5 100/72/5 79/59/5 78/57/5
f 101/12/1 98/13/1 77/45/1 80/60/1
f 102/73/6 103/74/6 82/61/6 81/13/6
f 104/75/6 102/73/6 81/13/6 83/62/6
f 103/76/3 105/77/3 84/15/3 82/14/3
f 106/78/5 107/76/5 86/14/5 85/63/5
f 108/76/5 109/79/5 88/64/5 87/14/5
f 110/80/6 104/75/6 83/62/6 89/65/6
f 109/79/5 111/81/5 93/66/5 88/64/5
f 112/82/6 110/80/6 89/65/6 92/67/6
f 111/81/5 113/83/5 94/68/5 93/66/5
f 114/84/6 112/82/6 92/67/6 95/69/6
f 113/83/5 115/85/5 97/70/5 94/68/5
f 116/86/6 114/84/6 95/69/6 98/71/6
f 117/85/5 118/87/5 100/72/5 99/70/5
f 119/88/1 116/73/1 98/13/1 101/12/1
f 120/89/6 121/90/6 103/74/6 102/73/6
f 122/91/6 120/89/6 102/73/6 104/75/6
f 121/92/3 123/93/3 105/77/3 103/76/3
f 124/94/5 125/92/5 107/76/5 106/78/5
f 125/92/5 127/95/5 126/79/5 107/76/5
f 128/96/6 122/91/6 104/75/6 110/80/6
f 127/95/5 130/97/5 129/81/5 126/79/5
f 131/98/6 128/96/6 110/80/6 112/82/6
f 134/97/5 135/99/5 133/83/5 132/81/5
f 136/100/6 131/98/6 112/82/6 114/84/6
f 137/99/5 138/101/5 115/85/5 113/83/5
f 139/102/6 136/100/6 114/84/6 116/86/6
f 140/101/5 141/103/5 118/87/5 117/85/5
f 142/104/1 139/89/1 116/73/1 119/88/1
f 143/105/6 144/106/6 121/90/6 120/89/6
f 145/107/6 143/105/6 120/89/6 122/91/6
f 144/108/3 146/109/3 123/93/3 121/92/3
f 147/110/5 148/108/5 125/92/5 124/94/5
f 151/108/5 152/111/5 150/95/5 149/92/5
f 153/112/6 145/107/6 122/91/6 128/96/6
f 152/111/5 155/113/5 154/97/5 150/95/5
f 156/114/6 153/112/6 128/96/6 131/98/6
f 157/113/5 158/115/5 135/99/5 134/97/5
f 159/116/6 156/114/6 131/98/6 136/100/6
f 160/115/5 161/117/5 138/101/5 137/99/5
f 162/118/6 159/116/6 136/100/6 139/102/6
f 163/117/5 164/119/5 141/103/5 140/101/5
f 165/120/1 162/105/1 139/89/1 142/104/1
f 5/34/6 6/121/6 144/106/6 143/105/6
f 23/122/6 5/34/6 143/105/6 145/107/6
f 6/35/3 8/36/3 146/109/3 144/108/3
f 166/123/5 167/35/5 148/108/5 147/110/5
f 167/35/5 169/124/5 168/111/5 148/108/5
f 30/125/6 23/122/6 145/107/6 153/112/6
f 169/124/5 171/126/5 170/113/5 168/111/5
f 37/127/6 30/125/6 153/112/6 156/114/6
f 171/126/5 173/128/5 172/115/5 170/113/5
f 44/129/6 37/127/6 156/114/6 159/116/6
f 173/128/5 174/130/5 163/117/5 172/115/5
f 48/131/6 44/129/6 159/116/6 162/118/6
f 174/130/5 175/132/5 164/119/5 163/117/5
f 49/33/1 48/34/1 162/105/1 165/120/1
f 63/64/2 176/10/2 58/3/2 59/15/2
f 177/16/4 178/10/4 14/3/4 12/6/4
f 179/51/3 180/16/3 11/6/3 55/49/3
f 180/16/3 177/10/3 12/3/3 11/6/3
f 178/10/4 181/62/4 22/12/4 14/3/4
f 65/51/3 63/16/3 59/6/3 61/49/3
f 181/62/4 182/133/4 29/19/4 22/12/4
f 183/134/2 64/135/2 68/22/2 69/29/2
f 182/133/4 184/136/4 36/26/4 29/19/4
f 185/51/3 183/16/3 69/6/3 71/49/3
f 184/136/4 186/122/4 43/33/4 36/26/4
f 187/124/2 185/134/2 71/29/2 96/36/2
f 186/122/4 188/137/4 3/40/4 43/33/4
f 188/10/1 189/11/1 4/4/1 3/3/1
f 189/11/1 190/47/1 80/60/1 4/4/1
f 191/64/3 187/51/3 96/49/3 97/15/3
f 190/47/1 192/62/1 101/12/1 80/60/1
f 193/79/3 191/64/3 97/15/3 115/77/3
f 192/62/1 194/75/1 119/88/1 101/12/1
f 195/95/3 193/79/3 115/77/3 138/93/3
f 194/75/1 196/91/1 142/104/1 119/88/1
f 197/111/3 195/95/3 138/93/3 161/109/3
f 196/91/1 198/107/1 165/120/1 142/104/1
f 199/124/2 200/134/2 38/29/2 45/36/2
f 198/107/1 201/122/1 49/33/1 165/120/1
f 201/138/2 199/124/2 45/36/2 49/43/2
f 202/136/4 197/122/4 161/33/4 160/26/4
f 200/134/2 203/135/2 31/22/2 38/29/2
f 203/135/2 204/64/2 24/15/2 31/22/2
f 204/64/2 205/10/2 7/3/2 24/15/2
f 64/11/1 66/47/1 70/60/1 68/4/1
f 205/10/2 206/11/2 8/4/2 7/3/2
f 207/10/4 208/62/4 109/12/4 108/3/4
f 206/124/3 209/111/3 146/109/3 8/36/3
f 176/11/1 210/47/1 60/60/1 58/4/1
f 209/111/3 211/95/3 123/93/3 146/109/3
f 66/47/1 91/62/1 93/12/1 70/60/1
f 211/95/3 212/79/3 105/77/3 123/93/3
f 213/75/1 214/91/1 137/104/1 113/88/1
f 212/79/3 215/64/3 84/15/3 105/77/3
f 216/62/1 207/75/1 108/88/1 87/12/1
f 215/64/3 179/51/3 55/49/3 84/15/3
f 210/47/1 216/62/1 87/12/1 60/60/1
f 91/135/2 90/64/2 88/15/2 93/22/2
f 208/62/4 217/133/4 111/19/4 109/12/4
f 90/64/3 65/51/3 61/49/3 88/15/3
f 217/133/4 213/136/4 113/26/4 111/19/4
f 214/91/1 202/107/1 160/120/1 137/104/1
f 218/139/4 219/140/4 208/62/4 207/10/4
f 220/141/3 221/142/3 211/95/3 209/111/3
f 133/143/1 135/144/1 214/91/1 213/75/1
f 222/145/2 223/139/2 149/10/2 150/64/2
f 219/140/4 132/146/4 217/133/4 208/62/4
f 134/147/2 222/145/2 150/64/2 154/135/2
f 132/146/4 133/148/4 213/136/4 217/133/4
f 157/141/3 134/142/3 154/95/3 155/111/3
f 135/144/1 158/149/1 202/107/1 214/91/1
f 224/147/2 225/145/2 204/64/2 203/135/2
f 226/149/1 227/150/1 201/122/1 198/107/1
f 228/151/2 224/147/2 203/135/2 200/134/2
f 158/148/4 229/150/4 197/122/4 202/136/4
f 230/152/2 228/151/2 200/134/2 199/124/2
f 231/148/4 232/150/4 186/122/4 184/136/4
f 227/153/2 230/152/2 199/124/2 201/138/2
f 232/150/4 233/154/4 188/137/4 186/122/4
f 229/141/3 234/142/3 195/95/3 197/111/3
f 235/144/1 226/149/1 198/107/1 196/91/1
f 234/142/3 236/155/3 193/79/3 195/95/3
f 237/143/1 235/144/1 196/91/1 194/75/1
f 236/155/3 238/145/3 191/64/3 193/79/3
f 239/140/1 237/143/1 194/75/1 192/62/1
f 238/145/3 76/156/3 187/51/3 191/64/3
f 240/157/1 239/140/1 192/62/1 190/47/1
f 76/152/2 75/151/2 185/134/2 187/124/2
f 241/158/1 240/157/1 190/47/1 189/11/1
f 75/156/3 73/159/3 183/16/3 185/51/3
f 242/156/3 243/159/3 180/16/3 179/51/3
f 233/139/1 241/158/1 189/11/1 188/10/1
f 244/159/4 245/139/4 178/10/4 177/16/4
f 73/151/2 246/147/2 64/135/2 183/134/2
f 247/146/4 231/148/4 184/136/4 182/133/4
f 246/147/2 248/145/2 63/64/2 64/135/2
f 249/140/4 247/146/4 182/133/4 181/62/4
f 248/145/2 250/139/2 176/10/2 63/64/2
f 245/139/4 249/140/4 181/62/4 178/10/4
f 243/159/3 244/139/3 177/10/3 180/16/3
f 250/158/1 251/157/1 210/47/1 176/11/1
f 252/145/3 242/156/3 179/51/3 215/64/3
f 251/157/1 253/140/1 216/62/1 210/47/1
f 254/155/3 252/145/3 215/64/3 212/79/3
f 253/140/1 218/143/1 207/75/1 216/62/1
f 221/142/3 254/155/3 212/79/3 211/95/3
f 223/144/1 255/149/1 151/107/1 149/91/1
f 256/152/3 220/141/3 209/111/3 206/124/3
f 257/139/2 256/158/2 206/11/2 205/10/2
f 255/139/4 258/140/4 152/62/4 151/10/4
f 225/145/2 257/139/2 205/10/2 204/64/2
f 258/140/4 157/146/4 155/133/4 152/62/4
f 25/160/2 16/161/2 250/139/2 248/145/2
f 166/162/3 147/163/3 220/141/3 256/152/3
f 107/161/4 126/164/4 219/140/4 218/139/4
f 167/161/2 166/165/2 256/158/2 257/139/2
f 18/166/3 17/161/3 244/139/3 243/159/3
f 147/163/3 124/167/3 221/142/3 220/141/3
f 125/168/1 148/169/1 255/149/1 223/144/1
f 124/167/3 106/170/3 254/155/3 221/142/3
f 129/171/1 130/168/1 134/144/1 132/143/1
f 106/170/3 85/160/3 252/145/3 254/155/3
f 86/164/1 107/171/1 218/143/1 253/140/1
f 85/160/3 56/172/3 242/156/3 252/145/3
f 57/173/1 86/164/1 253/140/1 251/157/1
f 56/172/3 18/166/3 243/159/3 242/156/3
f 16/165/1 57/173/1 251/157/1 250/158/1
f 17/166/4 15/161/4 245/139/4 244/159/4
f 15/161/4 26/164/4 249/140/4 245/139/4
f 32/174/2 25/160/2 248/145/2 246/147/2
f 26/164/4 33/175/4 247/146/4 249/140/4
f 39/176/2 32/174/2 246/147/2 73/151/2
f 33/175/4 40/177/4 231/148/4 247/146/4
f 46/162/2 39/176/2 73/151/2 74/152/2
f 40/177/4 47/178/4 232/150/4 231/148/4
f 78/172/3 46/166/3 74/159/3 76/156/3
f 47/178/4 51/179/4 233/154/4 232/150/4
f 51/161/1 50/165/1 241/158/1 233/139/1
f 50/165/1 79/173/1 240/157/1 241/158/1
f 99/160/3 78/172/3 76/156/3 238/145/3
f 79/173/1 100/164/1 239/140/1 240/157/1
f 117/170/3 99/160/3 238/145/3 236/155/3
f 100/164/1 118/171/1 237/143/1 239/140/1
f 140/167/3 117/170/3 236/155/3 234/142/3
f 118/171/1 141/168/1 235/144/1 237/143/1
f 163/163/3 140/167/3 234/142/3 229/141/3
f 141/168/1 164/169/1 226/149/1 235/144/1
f 174/162/2 173/176/2 228/151/2 230/152/2
f 164/169/1 175/178/1 227/150/1 226/149/1
f 175/180/2 174/162/2 230/152/2 227/153/2
f 172/177/4 163/178/4 229/150/4 158/148/4
f 173/176/2 171/174/2 224/147/2 228/151/2
f 170/175/4 172/177/4 158/148/4 157/146/4
f 171/174/2 169/160/2 225/145/2 224/147/2
f 168/164/4 170/175/4 157/146/4 258/140/4
f 169/160/2 167/161/2 257/139/2 225/145/2
f 148/161/4 168/164/4 258/140/4 255/139/4
f 127/160/2 125/161/2 223/139/2 222/145/2
f 126/164/4 129/175/4 132/146/4 219/140/4
f 130/174/2 127/160/2 222/145/2 134/147/2

